<svg id="Group_848" data-name="Group 848" xmlns="http://www.w3.org/2000/svg" xmlns:xlink="http://www.w3.org/1999/xlink"
    width="378.201" height="218.358" viewBox="0 0 378.201 218.358">
    <defs>
        <clipPath id="clip-path">
            <rect width="139.142" height="122.293" fill="none" />
        </clipPath>
    </defs>
    <path id="Union_8" data-name="Union 8"
        d="M33.878,184.859a13.2,13.2,0,1,1,0-26.408h265.1a13.2,13.2,0,1,1,0,26.408Zm10.157-26.408a13.2,13.2,0,0,1,0-26.409h278.3a13.2,13.2,0,1,1,0,26.409ZM13.2,132.043a13.2,13.2,0,1,1,0-26.408H84.672a13.2,13.2,0,0,0,.144-26.408H64.348a13.2,13.2,0,0,1,0-26.409H314.042a13.127,13.127,0,0,1,5.089,1.015H306.779a13.206,13.206,0,0,0-5.091,25.391h.005v0H365a13.2,13.2,0,0,1,0,26.409h-103.1a13.205,13.205,0,0,0,0,26.406v0ZM33.878,52.818a13.2,13.2,0,0,1,0-26.409h288.46a13.2,13.2,0,1,1,0,26.409ZM64.349,26.41A13.2,13.2,0,1,1,64.349,0H344.683a13.2,13.2,0,0,1,0,26.408Z"
        transform="translate(0 33.499)" fill="#e7f6ea" />
    <g id="Group_841" data-name="Group 841" transform="translate(71.502 40)">
        <g id="Group_840" data-name="Group 840">
            <line id="Line_486" data-name="Line 486" y2="5.153" transform="translate(12.367 6.184) rotate(90)"
                fill="none" stroke="#50b59a" stroke-width="2" />
            <line id="Line_487" data-name="Line 487" y2="5.153" transform="translate(6.184)" fill="none"
                stroke="#50b59a" stroke-width="2" />
            <line id="Line_488" data-name="Line 488" y2="5.153" transform="translate(6.184 7.214)" fill="none"
                stroke="#50b59a" stroke-width="2" />
            <line id="Line_489" data-name="Line 489" y2="5.153" transform="translate(5.153 6.184) rotate(90)"
                fill="none" stroke="#50b59a" stroke-width="2" />
        </g>
    </g>
    <g id="Group_843" data-name="Group 843" transform="translate(115.002 5.5)">
        <circle id="Ellipse_792" data-name="Ellipse 792" cx="1.685" cy="1.685" r="1.685" transform="translate(6.742)"
            fill="#6eca3d" />
        <circle id="Ellipse_793" data-name="Ellipse 793" cx="1.685" cy="1.685" r="1.685"
            transform="translate(6.742 13.483)" fill="#6eca3d" />
        <circle id="Ellipse_794" data-name="Ellipse 794" cx="1.685" cy="1.685" r="1.685"
            transform="translate(13.483 6.742)" fill="#6eca3d" />
        <circle id="Ellipse_795" data-name="Ellipse 795" cx="1.685" cy="1.685" r="1.685" transform="translate(0 6.742)"
            fill="#6eca3d" />
    </g>
    <g id="Group_845" data-name="Group 845" transform="translate(276.812 45.31)">
        <circle id="Ellipse_796" data-name="Ellipse 796" cx="1.5" cy="1.5" r="1.5"
            transform="matrix(0.914, -0.407, 0.407, 0.914, 5.269, 3.448)" fill="#c5e8cb" />
        <circle id="Ellipse_797" data-name="Ellipse 797" cx="1.5" cy="1.5" r="1.5"
            transform="matrix(0.914, -0.407, 0.407, 0.914, 10.15, 14.411)" fill="#c5e8cb" />
        <circle id="Ellipse_798" data-name="Ellipse 798" cx="1.5" cy="1.5" r="1.5"
            transform="matrix(0.914, -0.407, 0.407, 0.914, 13.19, 6.489)" fill="#c5e8cb" />
        <circle id="Ellipse_799" data-name="Ellipse 799" cx="1.5" cy="1.5" r="1.5"
            transform="matrix(0.914, -0.407, 0.407, 0.914, 2.228, 11.37)" fill="#c5e8cb" />
        <g id="Group_844" data-name="Group 844" transform="translate(0 14.004) rotate(-69)">
            <circle id="Ellipse_792-2" data-name="Ellipse 792" cx="1.5" cy="1.5" r="1.5" transform="translate(6)"
                fill="#c5e8cb" />
            <circle id="Ellipse_793-2" data-name="Ellipse 793" cx="1.5" cy="1.5" r="1.5" transform="translate(6 12)"
                fill="#c5e8cb" />
            <circle id="Ellipse_794-2" data-name="Ellipse 794" cx="1.5" cy="1.5" r="1.5" transform="translate(12 6)"
                fill="#c5e8cb" />
            <circle id="Ellipse_795-2" data-name="Ellipse 795" cx="1.5" cy="1.5" r="1.5" transform="translate(0 6)"
                fill="#c5e8cb" />
        </g>
    </g>
    <g id="Group_846" data-name="Group 846" transform="translate(71.502)">
        <g id="Group_840-2" data-name="Group 840">
            <line id="Line_486-2" data-name="Line 486" y2="8.897" transform="translate(21.354 10.677) rotate(90)"
                fill="none" stroke="#3591ea" stroke-width="2" />
            <line id="Line_487-2" data-name="Line 487" y2="8.897" transform="translate(10.677)" fill="none"
                stroke="#3591ea" stroke-width="2" />
            <line id="Line_488-2" data-name="Line 488" y2="8.897" transform="translate(10.677 12.456)" fill="none"
                stroke="#3591ea" stroke-width="2" />
            <line id="Line_489-2" data-name="Line 489" y2="8.897" transform="translate(8.897 10.677) rotate(90)"
                fill="none" stroke="#3591ea" stroke-width="2" />
        </g>
    </g>
    <line id="Line_490" data-name="Line 490" y1="33" x2="24" transform="translate(217.502 18)" fill="none"
        stroke="#9fd9a9" stroke-linecap="round" stroke-width="5" />
    <line id="Line_491" data-name="Line 491" y1="10" x2="12" transform="translate(235.502 48)" fill="none"
        stroke="#9fd9a9" stroke-linecap="round" stroke-width="5" />
    <line id="Line_492" data-name="Line 492" x1="1" y1="11" transform="translate(197.502 21)" fill="none"
        stroke="#9fd9a9" stroke-linecap="round" stroke-width="5" />
    <line id="Line_493" data-name="Line 493" x1="9" y1="12" transform="translate(167.502 39)" fill="none"
        stroke="#9fd9a9" stroke-linecap="round" stroke-width="5" />
    <line id="Line_494" data-name="Line 494" x1="4.893" y1="6.102" transform="translate(156.502 26)" fill="none"
        stroke="#9fd9a9" stroke-linecap="round" stroke-width="5" />
    <g id="Ellipse_800" data-name="Ellipse 800" transform="translate(197.002 44.5)" fill="#fff" stroke="#9fd9a9"
        stroke-width="2">
        <circle cx="2.5" cy="2.5" r="2.5" stroke="none" />
        <circle cx="2.5" cy="2.5" r="1.5" fill="none" />
    </g>
    <g id="shopping-cart" transform="translate(115.002 64.69)" clip-path="url(#clip-path)">
        <path id="Path_2243" data-name="Path 2243"
            d="M44.83,81.53h73.93a4.077,4.077,0,0,0,3.919-2.956L138.985,21.5a4.076,4.076,0,0,0-3.919-5.2H35.429L32.515,3.192A4.077,4.077,0,0,0,28.535,0H4.076a4.076,4.076,0,1,0,0,8.153H25.265c.516,2.324,13.945,62.755,14.718,66.232a12.228,12.228,0,0,0,4.858,23.45H118.76a4.076,4.076,0,0,0,0-8.153H44.841a4.076,4.076,0,0,1-.011-8.152Zm84.831-57.071L115.685,73.376H48.11L37.24,24.459Zm0,0"
            transform="translate(0 0)" fill="#57c06d" />
        <path id="Path_2244" data-name="Path 2244"
            d="M150,372.229A12.229,12.229,0,1,0,162.229,360,12.243,12.243,0,0,0,150,372.229Zm12.229-4.076a4.076,4.076,0,1,1-4.076,4.076A4.082,4.082,0,0,1,162.229,368.153Zm0,0"
            transform="translate(-109.236 -262.165)" fill="#57c06d" />
        <path id="Path_2245" data-name="Path 2245"
            d="M362,372.229A12.229,12.229,0,1,0,374.229,360,12.243,12.243,0,0,0,362,372.229Zm12.229-4.076a4.076,4.076,0,1,1-4.076,4.076A4.082,4.082,0,0,1,374.229,368.153Zm0,0"
            transform="translate(-263.622 -262.165)" fill="#57c06d" />
    </g>
    <line id="Line_495" data-name="Line 495" x2="12" transform="translate(127.502 107)" fill="none" stroke="#57c06d"
        stroke-linecap="round" stroke-width="8" />
    <line id="Line_496" data-name="Line 496" x2="37" transform="translate(106.502 127.688)" fill="none" stroke="#57c06d"
        stroke-linecap="round" stroke-width="8" />
    <line id="Line_497" data-name="Line 497" x2="19" transform="translate(120.502 146.076)" fill="none" stroke="#57c06d"
        stroke-linecap="round" stroke-width="8" />
    <g id="Group_847" data-name="Group 847" transform="translate(263.502 11)">
        <g id="Group_840-3" data-name="Group 840">
            <line id="Line_486-3" data-name="Line 486" y2="5.153" transform="translate(12.367 6.184) rotate(90)"
                fill="none" stroke="#3591ea" stroke-width="2" />
            <line id="Line_487-3" data-name="Line 487" y2="5.153" transform="translate(6.184)" fill="none"
                stroke="#3591ea" stroke-width="2" />
            <line id="Line_488-3" data-name="Line 488" y2="5.153" transform="translate(6.184 7.214)" fill="none"
                stroke="#3591ea" stroke-width="2" />
            <line id="Line_489-3" data-name="Line 489" y2="5.153" transform="translate(5.153 6.184) rotate(90)"
                fill="none" stroke="#3591ea" stroke-width="2" />
        </g>
    </g>
    <path id="Subtraction_7" data-name="Subtraction 7"
        d="M7.074,7.073A7.083,7.083,0,0,1,0,0H14.148A7.08,7.08,0,0,1,7.074,7.073Z"
        transform="translate(190.002 116.426)" fill="#57c06d" />
    <g id="Ellipse_803" data-name="Ellipse 803" transform="translate(205.002 108.5)" fill="#57c06d" stroke="#57c06d"
        stroke-width="2">
        <circle cx="4" cy="4" r="4" stroke="none" />
        <circle cx="4" cy="4" r="3" fill="none" />
    </g>
    <rect id="Rectangle_3895" data-name="Rectangle 3895" width="10" height="4" transform="translate(204.002 112.5)"
        fill="#e7f6ea" />
    <g id="Group_850" data-name="Group 850" transform="translate(180.002 108.5)">
        <g id="Ellipse_803-2" data-name="Ellipse 803" transform="translate(1)" fill="#57c06d" stroke="#57c06d"
            stroke-width="2">
            <circle cx="4" cy="4" r="4" stroke="none" />
            <circle cx="4" cy="4" r="3" fill="none" />
        </g>
        <rect id="Rectangle_3895-2" data-name="Rectangle 3895" width="10" height="4" transform="translate(0 4)"
            fill="#e7f6ea" />
    </g>
</svg>